PathFileType	4	(X/Y/Z)	c:/Users/goper/Files/vsCode/490R/osim_files/C17/C17_Slow_06.trc
DataRate	CameraRate	NumFrames	NumMarkers	Units                	OrigDataRate	OrigDataStartFrame	OrigNumFrames
250.00	250.00	4	36	mm	250.0	1764	2821
                Frame#	Time	LPSIS			LASIS			LTH1			LTH2			LTH3			LTH4			LLFE			LMFE			LSH1			LSH2			LSH3			LSH4			LLMAL			LMMAL			LCAL			LMTP5			LTOE			LMTP1			RPSIS			RASIS			RTH1			RTH2			RTH3			RTH4			RLFE			RMFE			RSH1			RSH2			RSH3			RSH4			RLMAL			RMMAL			RCAL			RMTP1			RTOE			RMTP5		
		X1	Y1	Z1	X2	Y2	Z2	X3	Y3	Z3	X4	Y4	Z4	X5	Y5	Z5	X6	Y6	Z6	X7	Y7	Z7	X8	Y8	Z8	X9	Y9	Z9	X10	Y10	Z10	X11	Y11	Z11	X12	Y12	Z12	X13	Y13	Z13	X14	Y14	Z14	X15	Y15	Z15	X16	Y16	Z16	X17	Y17	Z17	X18	Y18	Z18	X19	Y19	Z19	X20	Y20	Z20	X21	Y21	Z21	X22	Y22	Z22	X23	Y23	Z23	X24	Y24	Z24	X25	Y25	Z25	X26	Y26	Z26	X27	Y27	Z27	X28	Y28	Z28	X29	Y29	Z29	X30	Y30	Z30	X31	Y31	Z31	X32	Y32	Z32	X33	Y33	Z33	X34	Y34	Z34	X35	Y35	Z35	X36	Y36	Z36

1764	7.05200	-1775.55176	1067.11743	384.16464	-1974.87622	1011.33911	460.63519	-1993.82825	684.85626	502.89862	-2014.48804	648.13837	494.56085	-2045.38257	714.43042	500.14200	-2063.53345	673.81708	493.78247	-2092.45605	510.40811	464.51672	-2087.21460	502.72363	342.63715	-2153.13403	279.65720	461.77490	-2174.87671	241.30064	457.24960	-2208.22559	305.19672	465.56940	-2223.06934	264.17017	461.08685	-2265.82959	119.73721	440.44086	-2276.42383	142.21556	353.57617	-2225.46704	50.19413	388.57202	-2397.78198	128.84387	463.51431	-2431.79541	186.16168	404.08865	-2430.99316	160.11981	355.48248	-1775.61267	1068.03247	308.99939	-1949.86902	1031.18176	191.51135	-1842.43738	747.74677	145.59123	-1835.05334	702.76819	155.87782	-1900.72546	736.59070	159.41420	-1885.91174	691.27148	164.21199	-1808.08594	480.96796	197.69438	-1793.62915	506.33853	320.61697	-1678.23413	309.77106	199.92152	-1672.22742	266.96030	217.50873	-1739.00000	294.48987	211.06004	-1721.77454	251.47498	224.41220	-1626.55957	105.73135	265.45450	-1650.36243	125.17685	352.10059	-1547.89038	79.16305	307.84995	-1776.26831	47.44344	364.96854	-1795.51392	66.38312	319.60028	-1741.41675	40.88681	247.23076
1765	7.05600	-1781.05530	1066.42395	384.36664	-1980.38989	1010.71478	460.91330	-2000.19336	684.38275	502.50058	-2021.97351	647.05206	493.95581	-2051.87988	714.13666	500.21597	-2070.07495	673.63214	493.61053	-2099.34546	510.20624	463.80688	-2094.33643	502.95926	341.82352	-2158.99707	279.07251	460.15665	-2180.54297	240.81250	455.81177	-2214.27393	304.54819	464.33139	-2228.91211	263.42316	459.74689	-2270.87695	118.86459	438.85031	-2281.27222	141.57837	351.95859	-2230.12769	49.49577	386.74539	-2402.73242	127.63033	462.12372	-2437.17236	184.99828	402.83984	-2437.12866	159.23798	354.07190	-1781.23608	1067.23560	309.29568	-1955.38940	1030.30725	191.76241	-1846.76013	747.30249	145.80705	-1839.54041	702.57983	156.05740	-1904.81885	735.82739	159.56619	-1889.92737	690.65582	164.42363	-1810.80762	480.78912	197.75996	-1796.58948	506.14035	320.64890	-1679.91138	310.32773	199.78700	-1673.48962	267.35562	217.56438	-1740.53174	294.66537	210.96307	-1723.49609	252.52515	224.45895	-1627.02979	106.36495	265.17725	-1650.92883	125.80715	351.83337	-1548.19885	80.13633	307.52582	-1776.33630	47.45605	364.89984	-1795.57141	66.29749	319.56476	-1741.47070	40.83601	247.18210
1766	7.06000	-1786.60010	1065.69531	384.57834	-1986.01367	1010.12091	461.23083	-2006.67273	683.99799	502.09665	-2028.57910	646.81885	493.51105	-2058.39771	713.86633	500.36679	-2076.34985	673.54767	493.60468	-2106.34912	510.07367	463.07483	-2101.50635	503.29401	340.91159	-2164.64551	278.67188	458.71143	-2186.00757	240.22443	454.35513	-2220.18164	303.72443	462.98920	-2234.59570	262.58139	458.32996	-2275.38184	117.73837	437.20203	-2285.98901	140.92812	350.17456	-2235.51416	48.24411	385.29126	-2407.02588	125.95687	460.81168	-2441.92065	183.20430	401.79520	-2441.41602	156.91487	353.71051	-1786.84534	1066.34827	309.54770	-1960.91479	1029.23474	192.02139	-1850.61267	746.85095	146.13046	-1843.55786	702.24768	156.26170	-1909.13184	735.03949	159.77225	-1893.68640	689.98468	164.67033	-1813.55444	480.58646	197.84317	-1799.40271	506.03006	320.77026	-1681.62573	310.91946	199.65549	-1675.05322	268.08719	217.14014	-1742.14417	294.91614	210.79388	-1724.83252	252.83560	224.29984	-1627.53638	107.07686	264.90009	-1651.53162	126.45748	351.54053	-1548.46753	81.21651	307.27664	-1776.37036	47.48053	364.82883	-1795.66333	66.20940	319.51703	-1741.49463	40.79699	247.14236
1767	7.06400	-1792.18054	1064.96912	384.72015	-1991.64539	1009.54993	461.50708	-2013.50830	683.80884	501.76324	-2035.26074	646.55920	493.10458	-2064.99756	713.71875	500.47186	-2083.44263	673.28900	493.53873	-2113.45581	509.91843	462.26334	-2108.94385	503.73712	340.01395	-2170.19287	278.24002	457.45193	-2191.30444	239.59697	452.85480	-2225.80688	302.87128	461.60538	-2240.00293	261.61227	456.92273	-2279.37866	116.40523	435.53021	-2292.18530	138.63496	349.71017	-2238.62915	47.61703	382.53040	-2410.92163	123.80041	459.45865	-2446.61133	181.00671	400.75708	-2445.64917	154.77206	351.23236	-1792.43335	1065.54224	309.85071	-1966.56384	1028.37219	192.25121	-1855.43420	746.52234	146.29898	-1847.69092	701.89899	156.46609	-1913.42224	734.33917	160.01595	-1897.93359	689.44623	164.92026	-1816.34827	480.41983	197.97719	-1802.33972	505.85507	320.86414	-1683.38672	311.56656	199.53142	-1676.74426	268.81726	217.03227	-1743.83459	295.14758	210.72981	-1725.98840	252.51883	223.79538	-1628.03564	107.81234	264.60175	-1652.04529	127.15366	351.25845	-1548.73145	82.32972	307.00574	-1776.40076	47.54519	364.73517	-1795.62146	66.16248	319.56549	-1741.53113	40.75945	247.11153
